<?xml version="1.0" encoding="utf-8"?>
<!-- Generator: Adobe Illustrator 23.0.3, SVG Export Plug-In . SVG Version: 6.00 Build 0)  -->
<svg version="1.1" id="Capa_1" xmlns="http://www.w3.org/2000/svg" xmlns:xlink="http://www.w3.org/1999/xlink" x="0px" y="0px"
	 viewBox="0 0 1200 1200" enable-background="new 0 0 1200 1200" xml:space="preserve">
<path d="M437.118,532.535c-2.492-2.524-6.512-6.746-11.097-11.566c-4.721-4.961-10.042-10.552-14.92-15.573
	c6.668-11.246,16.234-19.254,29.199-24.452c3.184-1.275,6.225-2.916,9.167-4.502c0.996-0.538,1.993-1.076,2.994-1.599
	c20.962-10.954,40.345-18.08,59.254-21.785c3.367-0.661,6.741-1.292,10.116-1.922c9.251-1.727,18.817-3.515,28.092-5.922
	c14.268-3.692,25.466-1.881,35.245,5.715c0.218,0.169,0.445,0.301,0.696,0.432c9.573,15.761,16.312,32.417,20.03,49.516
	c5.955,27.375,3.1,49.934-0.514,78.495c-1.005,7.954-2.213,15.312-3.878,23.627C527.605,591.849,472.302,568.145,437.118,532.535z
	 M407.081,513.393c-2.834,6.701-4.853,14.278-6.143,23.05c6.901,1.69,13.624,2.983,20.499,3.943
	c4.427,0.618,8.827,1.087,13.325,1.414C424.817,532.998,415.53,523.47,407.081,513.393z M786.75,683.849
	c24.815,24.431,43.715,55.891,59.483,99.009c17.199,47.037,28.038,99.089,35.145,168.774c4.453,43.663,6.205,91.323,5.358,145.703
	c-0.11,7.046-0.08,14.095-0.052,21.201c0.011,2.434,0.02,4.872,0.026,7.321c36.437-11.131,74.634-15.636,111.602-19.998
	c7.07-0.834,14.134-1.667,21.182-2.544c0.004-3.521,0.022-6.988,0.041-10.414c0.047-8.594,0.091-16.714-0.082-24.932
	c-0.828-39.396-4.137-78.024-9.832-114.814c-9.203-59.438-23.365-113.333-43.298-164.764
	c-21.275-54.903-46.698-101.32-77.723-141.899c-3.421-4.476-6.953-8.87-10.463-13.235c-1.608-2.002-3.214-3.997-4.8-5.994
	c-20.006-23.259-41.923-45.286-65.096-65.414h-0.002c-13.252-11.512-27.314-22.71-41.846-33.325
	c0.158,6.359,0.052,12.441-0.32,18.491c-2.19,35.597-13.077,70.422-32.363,103.542C754.154,658.127,771.997,669.324,786.75,683.849z
	 M593.983,636.345l0.491-2.086c1.98-8.423,3.677-15.644,5.168-22.432c-11.748-0.432-23.385-1.662-34.628-3.661
	c-0.179-0.032-17.765-3.242-42.537-13.04c-26.398,15.139-51.697,32.404-75.203,51.321c-9.426,7.585-18.77,15.612-27.831,23.903
	c7.561-0.095,15.124-0.115,22.687-0.136c5.756-0.015,11.512-0.032,17.268-0.08c2.725-0.022,5.551-0.233,8.285-0.435
	c2.976-0.22,6.007-0.445,9.031-0.445c2.403,0,4.801,0.141,7.163,0.54c16.206,2.732,32.594,5.951,48.442,9.065l0.752,0.147
	c19.799-9.992,39.464-20.949,58.478-32.582C592.362,643.138,593.176,639.783,593.983,636.345z M720.889,651.027
	c22.347-38.238,34.818-81.797,37.058-129.468l0.002-4.303c0.002-2.678,0.006-5.265-0.007-7.85
	c-0.054-9.981-3.808-16.81-12.173-22.146c-26.54-16.928-57.658-29.251-95.129-37.672c-20.162-4.53-38.309-3.919-55.38,1.883
	c13.105,24.204,21.081,49.138,23.715,74.144c4.805,45.615-7.9,88.773-25.485,148.506c-1.613,5.484-3.035,10.113-4.077,13.448
	c8.235,2.471,15.357,3.622,22.728,1.705C647.623,680.032,685.342,669,720.889,651.027z M551.794,682.645
	c3.073,0.594,6.147,1.184,9.225,1.757c2.952,0.551,5.97,0.648,9.167,0.752c1.727,0.054,3.454,0.112,5.17,0.24
	c0.912,0.069,1.837,0.108,2.762,0.149c0.919,0.039,1.841,0.08,2.752,0.145c2.196-7.399,4.329-14.953,6.359-22.524
	C575.256,670.104,563.586,676.521,551.794,682.645z M511.424,590.505c-17.646-7.777-34.415-17.116-49.905-27.792
	c-17.635,3.925-35.058,8.931-51.797,14.882c-25.901,9.21-69.252,24.623-109.903,60.613c-8.002,7.083-15.642,14.722-22.704,22.704
	l-0.244,0.313c-81.195,121.927-119.394,262.442-120.163,442.116c5.322,0.627,10.634,1.238,15.936,1.846
	c40.916,4.695,79.615,9.137,117.731,20.62l0.013-6.11c0.019-6.117,0.037-12.162-0.032-18.204
	c-0.897-79.243,2.52-139.828,11.079-196.443c6.716-44.431,17.784-102.403,43.985-156.756c15.874-32.936,33.77-56.582,56.316-74.416
	c15.686-14.425,32.311-28.416,49.3-41.495C470.309,617.544,490.609,603.469,511.424,590.505z M1147.655,301.332
	c-1.197-5.657-2.41-11.313-3.625-16.969c-4.124-19.217-8.391-39.088-11.908-58.772c-1.122-6.279-2.752-12.456-4.868-18.47
	c2.976,29.175,0.815,66.564-19.429,100.174c-2.148,3.568-4.63,7.217-7.561,11.116l0.054,0.052l-1.025,1.474
	c-2.723,3.279-5.393,6.601-8.06,9.919c-5.732,7.129-11.657,14.501-18.014,21.295c-34.058,36.392-77.252,68.075-135.935,99.709
	c-49.871,26.88-103.896,49.549-165.056,69.248c21.677,15.593,42.289,32.869,61.316,51.39c16.139,15.709,31.464,32.636,45.57,50.331
	c0.447-0.134,0.895-0.266,1.347-0.385c45.369-11.99,82.213-24.837,115.948-40.427c34.561-15.969,78.652-39.168,113.136-77.131
	c23.231-25.574,35.199-51.607,36.587-79.588c0.597-12.024,0.569-24.305,0.543-36.182c-0.017-7.725-0.034-15.45,0.112-23.169
	c0.143-7.595,0.776-15.351,1.881-23.056C1150.732,327.557,1150.4,314.29,1147.655,301.332z M101.916,412.886
	c0.382-0.517,0.802-1.079,1.269-1.699c26.454-34.992,60.823-65.675,108.16-96.558c63.935-41.714,134.206-74.349,214.834-99.768
	C463.797,203,504.168,192.1,549.6,181.541c14.594-3.391,30.159-3.27,45.213-3.153c2.656,0.02,5.306,0.041,7.941,0.043
	c64.138,0.041,127.173,5.025,187.358,14.814c83.63,13.604,151.039,33.148,212.137,61.504c37.041,17.192,65.781,35.175,90.236,56.481
	c6.398-9.419,11.655-19.522,15.638-30.063c3.205-8.475,5.509-17.05,7.035-26.182l-87.299-67.469l-2.231-10.606l3.797,2.377
	c33.939,21.254,58.32,37.734,67.426,44.638c2.155,1.636,3.463,2.739,4.87,3.929c1.77,1.493,3.599,3.039,7.466,5.948
	c0.14,0.115,2.501,2.306,7.706,6.969c0.361-4.424,0.562-8.51,0.724-12.106c0.703-15.601-0.348-31.555-3.125-47.431
	c-5.2-7.874-11.507-15.392-18.748-22.351c-21.262-20.423-47.71-36.228-83.237-49.743C959.819,89.099,900.773,77.926,831.992,74.98
	c-36.625-1.569-76.696-0.945-126.118,1.971c-27.69,1.63-55.757,5.388-82.9,9.022c-7.799,1.044-15.597,2.088-23.395,3.086
	c-10.619,1.357-21.385,3.106-31.795,4.8c-10.429,1.695-21.214,3.448-31.883,4.813c-7.394,0.944-14.946,1.265-22.252,1.576
	c-5.259,0.225-10.699,0.456-16.005,0.919c-49.955,4.362-93.686,10.517-133.696,18.813c-70.059,14.525-126.306,32.843-177.015,57.648
	c-47.34,23.155-79.584,46.607-104.547,76.037c-8.092,9.541-14.747,19.377-19.782,29.244c-0.955,28.633,3.7,56.517,13.833,82.876
	C82.835,382.432,91.402,398.266,101.916,412.886z M235.162,648.596c9.143,2.449,18.214,4.541,27.816,6.754l3.582,0.826
	c20.637-21.331,43.886-39.941,69.116-55.324c35.914-21.897,75.095-36.982,116.519-44.869c-2.185-1.638-4.325-3.288-6.396-4.935
	c-8.3-0.017-16.256-0.408-24.303-1.197c-8.062-0.789-16.189-1.982-24.158-3.542c-0.638-0.06-1.403-0.125-2.136-0.188
	c-1.587-0.136-3.033-0.262-4.457-0.519c-67.294-12.076-122.043-27.444-172.299-48.366c-44.941-18.709-79.074-38.822-107.411-63.296
	c-2.276-1.965-4.479-4.012-6.674-6.071l-1.556-1.478c-1.654-1.58-2.628-2.674-3.26-3.659c-6.67-7.429-11.596-14.179-14.52-18.491
	c-9.657-14.233-30.801-50.803-31.256-98.482c-2.488,9.309-3.733,18.845-3.715,28.481c0.013,7.28-0.006,14.562-0.026,21.844
	c-0.056,20.694-0.114,42.094,0.64,63.092c0.4,11.16,3.093,22.522,5.697,33.511l0.562,2.373c2.166,9.182,4.824,18.433,7.396,27.383
	c1.481,5.159,2.965,10.319,4.366,15.498c1.47,5.429,2.769,11.006,4.023,16.401c2.581,11.095,5.25,22.566,9.523,33.102
	c8.842,21.802,24.986,39.738,52.346,58.16C161.576,623.78,193.537,637.441,235.162,648.596z"/>
</svg>
